<svg xmlns="http://www.w3.org/2000/svg" viewBox="0 0 250 250"><defs><style>.cls-1{fill:#8baf4b;}.cls-2,.cls-5{fill:#5d7d00;}.cls-3,.cls-4{fill:#cc8362;}.cls-4{font-size:27.69px;font-family:PassionOne-Regular, Passion;}.cls-5{font-size:13.84px;font-family:RobotoCondensed-Regular, Roboto Condensed;}</style></defs><title>4836622</title><g id="OBJECTS"><path class="cls-1" d="M226.79,128.1c0-8.53-9.46-15.64-11.71-23.49-2.31-8.07,1.88-19.09-2.49-26.13s-16.15-8.22-22.27-13.92-8-17.31-15.37-21.3c-7.22-3.9-18,.84-26.24-1.2-7.9-2-15.17-11.31-23.71-11.31s-15.81,9.34-23.71,11.31c-8.21,2-19-2.7-26.24,1.2-7.4,4-9.34,15.66-15.37,21.29S41.79,71.42,37.41,78.48s-.18,18.06-2.49,26.13c-2.25,7.85-11.71,15-11.71,23.49S32.68,143.89,35,151.89,33,171.11,37.34,178.31,53.5,187,59.54,192.86s7.74,17.63,15.1,21.83,18.22-.34,26.47,1.85c8,2.12,15.26,11.54,23.89,11.54,8.84,0,16.26-9.33,24.18-11.26,8.48-2.07,19.41,2.6,26.64-1.38,7.55-4.15,9.39-15.93,15.38-21.79s17.87-7.56,22.11-14.89-.23-18.34,1.95-26.61C217.4,144.1,226.79,136.74,226.79,128.1ZM125,207.87c-44.77,0-81-36.82-81-79.55S80.23,51,125,51s81.05,34.64,81.05,77.37S173.14,207.87,125,207.87Z"/><path class="cls-2" d="M172.76,128.77c0,25.18-19.39,46.87-47.76,46.87-26.38,0-47.76-21.69-47.76-46.87S98.62,83.18,125,83.18,172.76,103.59,172.76,128.77Z"/><path class="cls-3" d="M128,128.18a21.41,21.41,0,0,0-8.25,2A21.65,21.65,0,0,0,109,141.28a14.06,14.06,0,0,0-1.14,7.79,8.3,8.3,0,0,0,4.5,6.2c2.68,1.21,5.83.55,8.58-.49s5.41-2.48,8.33-2.83,6.09.49,9.15.68,6.52-.54,8.19-3.11c3.69-5.66-1.93-14.24-6.31-17.75C136.7,128.87,132.5,128,128,128.18Z"/><path class="cls-3" d="M107,136.41c3.41-.6,2.16-6.35,1.3-8.4a19,19,0,0,0-4.47-6.44,10.75,10.75,0,0,0-6.38-3.17c-2.42-.17-5,1.1-5.88,3.37a7,7,0,0,0,.21,4.69,14.65,14.65,0,0,0,6,7.63C100.2,135.61,104.05,136.91,107,136.41Z"/><path class="cls-3" d="M152.84,112.22a6.56,6.56,0,0,0-4.3.54,13.55,13.55,0,0,0-6.58,6.12c-1.22,2.34-2.13,6-1.45,8.63.8,3.1,6,1.52,7.83.57a17.24,17.24,0,0,0,5.59-4.59,9.9,9.9,0,0,0,2.45-6.1A5.41,5.41,0,0,0,152.84,112.22Z"/><path class="cls-3" d="M116.39,128.25c3.83.72,4.78-5.84,4.68-8.34a21.13,21.13,0,0,0-2.18-8.54,12.1,12.1,0,0,0-5.47-5.86c-2.48-1.12-5.74-.81-7.53,1.24a8,8,0,0,0-1.62,5,16.51,16.51,0,0,0,3.35,10.42C109.57,124.75,113.12,127.64,116.39,128.25Z"/><path class="cls-3" d="M129.39,125.53c3.31,2.4,7.15-3.4,8.17-5.81a22.27,22.27,0,0,0,1.76-9.08,12.61,12.61,0,0,0-2.57-8c-1.84-2.18-5.07-3.35-7.69-2.2a8.4,8.4,0,0,0-3.79,4,17.31,17.31,0,0,0-1.49,11.38C124.49,119.15,126.56,123.48,129.39,125.53Z"/><text class="cls-4" transform="translate(53.19 148.67) rotate(68.22)">C</text><text class="cls-4" transform="matrix(0.57, 0.82, -0.82, 0.57, 59.6, 163.55)">R</text><text class="cls-4" transform="matrix(0.76, 0.64, -0.64, 0.76, 70.9, 178.64)">U</text><text class="cls-4" transform="matrix(0.9, 0.44, -0.44, 0.9, 86.67, 190.87)">E</text><text class="cls-4" transform="translate(100.95 197.38) rotate(14.79)">L</text><text class="cls-4" transform="translate(115.11 200.71) rotate(3.17)">T</text><text class="cls-4" transform="translate(131.2 201.17) rotate(-9.54)">Y</text><text class="cls-4" transform="translate(147.94 197.63) rotate(-20)"> </text><text class="cls-4" transform="translate(157.19 194.12) rotate(-29.44)">F</text><text class="cls-4" transform="matrix(0.74, -0.67, 0.67, 0.74, 170.46, 186.2)">R</text><text class="cls-4" transform="translate(183.63 173.27) rotate(-55.4)">E</text><text class="cls-4" transform="translate(192.2 160) rotate(-67.47)">E</text><text class="cls-5" transform="translate(64.51 110.76) rotate(-63.81)">N</text><text class="cls-5" transform="matrix(0.58, -0.81, 0.81, 0.58, 69.48, 101.15)">O</text><text class="cls-5" transform="translate(75.69 92.93) rotate(-47.69)"> </text><text class="cls-5" transform="translate(79.4 88.86) rotate(-40.86)">A</text><text class="cls-5" transform="translate(87.14 82.38) rotate(-31.72)">N</text><text class="cls-5" transform="translate(96.55 76.94) rotate(-24.33)">I</text><text class="cls-5" transform="matrix(0.96, -0.28, 0.28, 0.96, 101.93, 74.44)">M</text><text class="cls-5" transform="matrix(0.99, -0.11, 0.11, 0.99, 114.02, 71.26)">A</text><text class="cls-5" transform="matrix(1, 0.03, -0.03, 1, 124.1, 70.39)">L</text><text class="cls-5" transform="translate(133 70.92) rotate(8.28)"> </text><text class="cls-5" transform="matrix(0.97, 0.26, -0.26, 0.97, 138.46, 71.75)">T</text><text class="cls-5" transform="translate(147.41 74.31) rotate(23.08)">E</text><text class="cls-5" transform="matrix(0.85, 0.52, -0.52, 0.85, 155.91, 78.11)">S</text><text class="cls-5" transform="matrix(0.77, 0.64, -0.64, 0.77, 164.14, 83.37)">T</text><text class="cls-5" transform="translate(171.18 89.55) rotate(46.49)">I</text><text class="cls-5" transform="translate(175.28 93.87) rotate(53.85)">N</text><text class="cls-5" transform="translate(181.48 102.72) rotate(63.18)">G</text><path class="cls-3" d="M198.16,125.89a2.57,2.57,0,0,0-2.26-2.22,5.29,5.29,0,0,0-3.5,1.68,5.28,5.28,0,0,0-2.92-2.56,2.56,2.56,0,0,0-2.78,1.54,4,4,0,0,0-.22,2.4,6.26,6.26,0,0,0,.88,2.12,8.27,8.27,0,0,0,4.09,3.44,8.28,8.28,0,0,0,4.86-2.22,6.16,6.16,0,0,0,1.42-1.8A4.1,4.1,0,0,0,198.16,125.89Z"/><path class="cls-3" d="M66.45,124.09a2.55,2.55,0,0,0-2.84-1.41,5.3,5.3,0,0,0-2.8,2.69,5.26,5.26,0,0,0-3.57-1.53,2.58,2.58,0,0,0-2.16,2.33,4,4,0,0,0,.53,2.35,6.33,6.33,0,0,0,1.5,1.74,8.29,8.29,0,0,0,5,2A8.31,8.31,0,0,0,66,128.64a6.28,6.28,0,0,0,.79-2.16A4,4,0,0,0,66.45,124.09Z"/></g></svg>