<svg xmlns="http://www.w3.org/2000/svg" viewBox="0 0 250 250"><defs><style>.cls-1{fill:#cc8362;}.cls-2{fill:#8baf4b;}.cls-3,.cls-6{fill:#5d7d00;}.cls-4{fill:#3d4d21;}.cls-5{font-size:28.38px;fill:#fff;font-family:PassionOne-Regular, Passion;letter-spacing:0.08em;}.cls-6{font-size:21.99px;font-family:RobotoCondensed-Regular, Roboto Condensed;}</style></defs><title>4836622</title><g id="OBJECTS"><path class="cls-1" d="M196.25,105.25a10.06,10.06,0,0,0-2.44-4.14,20.24,20.24,0,0,0-.35-3,13,13,0,0,0-.76-2.53,4.79,4.79,0,0,0-7.71-2c-3.85,3.09-3.08,8.63-4,12.94-1.57,7.24-5.59,13.12-9.73,19.11a40.6,40.6,0,0,1-7.84,8.35L162,135c-.7.51-1.46-.58-.77-1.09,5.44-4,14.18-15.15,10.05-17.88s-9.33,2.69-11.36,5C151,131.11,143.49,133.9,139.08,138A17.91,17.91,0,0,0,133.36,150a16.22,16.22,0,0,0,2,9A46.74,46.74,0,0,1,137,191.77l33.32.2c-.16-.64-.3-1.28-.43-1.92a49.78,49.78,0,0,1,.59-22.19c2.53-9.89,8.37-18.55,14.14-26.81s10.26-17.33,11.84-27.29A19.23,19.23,0,0,0,196.25,105.25Z"/><path class="cls-1" d="M60.87,105.25a9.84,9.84,0,0,1,2.44-4.14,19,19,0,0,1,.34-3,13.68,13.68,0,0,1,.76-2.53,4.79,4.79,0,0,1,7.71-2c3.86,3.09,3.08,8.63,4,12.94,1.57,7.24,5.58,13.12,9.73,19.11a40.6,40.6,0,0,0,7.84,8.35c.47.38,1,.75,1.45,1.12.69.51,1.45-.58.76-1.09-5.44-4-14.18-15.15-10-17.88s9.32,2.69,11.35,5C106.12,131.11,113.62,133.9,118,138A18,18,0,0,1,123.76,150a16.23,16.23,0,0,1-2.05,9,46.74,46.74,0,0,0-1.55,32.77l-33.32.2q.22-1,.42-1.92a49.5,49.5,0,0,0-.59-22.19c-2.52-9.89-8.36-18.55-14.13-26.81s-10.27-17.33-11.85-27.29A19.08,19.08,0,0,1,60.87,105.25Z"/><path class="cls-2" d="M167.36,76.33c-6,6.69-15.47,8.85-23.34,13.23a41.44,41.44,0,0,0-17.76,19.23,36.49,36.49,0,0,0-2.21,22.76A100.74,100.74,0,0,1,158.6,88,98.54,98.54,0,0,0,127.82,134c9-2.48,17.91-5.87,25.18-11.68,8-6.42,14.09-15.85,14.68-26.12C168.07,89.49,166.1,83,167.36,76.33Z"/><path class="cls-2" d="M90.76,79.37c4,4.45,10.3,5.89,15.54,8.81A27.54,27.54,0,0,1,118.13,101a24.39,24.39,0,0,1,1.48,15.16,67.16,67.16,0,0,0-23-29,65.62,65.62,0,0,1,20.5,30.67c-6-1.65-11.92-3.91-16.77-7.78-5.35-4.27-9.38-10.55-9.77-17.39C90.29,88.13,91.6,83.79,90.76,79.37Z"/><path class="cls-2" d="M132.09,57.81c-1.68,4.59-6,7.59-9.06,11.39a22.45,22.45,0,0,0-5,13.27,19.84,19.84,0,0,0,3.5,11.9A54.68,54.68,0,0,1,130,65.44a53.45,53.45,0,0,0-6.14,29.41c4-3.08,7.82-6.58,10.3-11,2.74-4.86,3.87-10.83,2.08-16.11C135.11,64.28,132.8,61.4,132.09,57.81Z"/><path class="cls-3" d="M173.5,173.83s23.76.42,41.45-.83c0,0-5.23,10.08-6,19.8,0,0,3.61,3.38,8.36,15.44-.47-.1-42.87,0-42.87,0Z"/><path class="cls-4" d="M193.15,182.18l-19.65-8.35a29.15,29.15,0,0,0-.93,10.57Z"/><path class="cls-3" d="M81.69,173.83s-23.77.42-41.45-.83c0,0,5.23,10.08,6,19.8,0,0-3.62,3.38-8.37,15.44.48-.1,42.88,0,42.88,0Z"/><path class="cls-2" d="M62,182.18s112.56,2.77,131.06,0c0,0-2.6,25.44,0,34.79,0,0-58.95-1.64-131.06,0A101.12,101.12,0,0,0,62,182.18Z"/><path class="cls-4" d="M62,182.18l19.65-8.35a17.67,17.67,0,0,1,1,8.79Z"/><text class="cls-5" transform="translate(86.66 208.31)">VEGAN</text><text class="cls-6" transform="matrix(0.58, -0.82, 0.82, 0.58, 60.22, 82.71)">E</text><text class="cls-6" transform="translate(68.91 70.91) rotate(-44.34)">C</text><text class="cls-6" transform="translate(80.09 60.43) rotate(-33.38)">O</text><text class="cls-6" transform="matrix(0.91, -0.42, 0.42, 0.91, 93.98, 51.98)"> </text><text class="cls-6" transform="translate(101.86 48.42) rotate(-16.37)">F</text><text class="cls-6" transform="translate(116.01 44.57) rotate(-5.53)">R</text><text class="cls-6" transform="translate(132.26 43.56) rotate(3.33)">I</text><text class="cls-6" transform="translate(141.6 44.19) rotate(11.78)">E</text><text class="cls-6" transform="translate(155.86 47.4) rotate(22.95)">N</text><text class="cls-6" transform="matrix(0.82, 0.57, -0.57, 0.82, 171.38, 54.44)">D</text><text class="cls-6" transform="matrix(0.71, 0.71, -0.71, 0.71, 184.38, 63.93)">L</text><text class="cls-6" transform="matrix(0.59, 0.8, -0.8, 0.59, 192.47, 72.07)">Y</text></g></svg>