<svg xmlns="http://www.w3.org/2000/svg" viewBox="0 0 250 250"><defs><style>.cls-1{fill:#8baf4b;}.cls-2,.cls-3{fill:#5d7d00;}.cls-3{font-size:32.62px;font-family:PassionOne-Regular, Passion;}.cls-4{font-size:23.69px;fill:#cc8362;font-family:RobotoCondensed-Regular, Roboto Condensed;}</style></defs><title>4836622</title><g id="OBJECTS"><path class="cls-1" d="M175.42,160A53.55,53.55,0,0,1,162,175a51.86,51.86,0,0,1-28.13,10.79,72,72,0,0,1-23.81-2.66,84.11,84.11,0,0,1-12.2-4.44c-19.47-8.8-28.76-27.56-28.38-47.47a64.57,64.57,0,0,1,2-14.82,61,61,0,0,1,5.84-14.71,54.72,54.72,0,0,1,6-8.67c12.89-15.19,33.1-21.7,54.16-16.89,2,.45,3.92,1,5.89,1.64a57.42,57.42,0,0,1,34,30.83C184.76,124.61,185,143.72,175.42,160Z"/><path class="cls-2" d="M121.09,140.59c-2.36,2-5.2,3.49-7.57,5.53s-4.32,5-3.93,8.09,2.86,5.84,2,8.75c-.86,2.73-4.29,3.71-7.14,3.44a15.56,15.56,0,0,1-13.56-13.34c-.39-3.46.19-7.57-2.45-9.83a11.11,11.11,0,0,0-4.12-1.82,31.28,31.28,0,0,1-14.76-10.16,64.57,64.57,0,0,1,2-14.82,61,61,0,0,1,5.84-14.71,15.09,15.09,0,0,0,1.73,2.91,10.71,10.71,0,0,0,5.92,4c2.65.59,5.41-.05,8-.81s5.26-1.6,8-1.43,5.53,1.67,6.36,4.26c.57,1.74.15,3.66.49,5.45.77,4,5,6.31,8.66,8.08s7.85,4.19,8.42,8.26C125.37,135.55,123.45,138.53,121.09,140.59Z"/><path class="cls-2" d="M177.43,108.63q-2,8.22-4,16.44c-.86,3.56-2,7.47-5.08,9.4-4.31,2.67-10.82.4-14.4,4-1.93,1.93-2.24,4.89-3.16,7.45a11.67,11.67,0,0,1-5.73,6.7,8,8,0,0,1-8.49-.92c-3-2.66-3-7.48-1.74-11.3s3.66-7.28,4.67-11.2a17.18,17.18,0,0,0-12.63-21c-2.17-.51-4.42-.61-6.57-1.19s-4.29-1.77-5.25-3.79a6.4,6.4,0,0,1,.27-5.56,10.73,10.73,0,0,1,4-4.08c3.67-2.29,8.16-3.09,11.7-5.58s5.16-6,6-10a10.62,10.62,0,0,1,.55-1.89c2,.45,3.92,1,5.89,1.64A57.42,57.42,0,0,1,177.43,108.63Z"/><path class="cls-2" d="M162,175a51.86,51.86,0,0,1-28.13,10.79,72,72,0,0,1-23.81-2.66,11.7,11.7,0,0,1,4-10.07c4.39-3.47,11.3-2.93,15-7.16,1.27-1.47,2-3.39,3.5-4.65a7,7,0,0,1,7.23-.69,12.8,12.8,0,0,1,5.43,5.21,36.2,36.2,0,0,0,3.38,5.5c2.49,2.83,6.44,4,10.21,4A23.61,23.61,0,0,0,162,175Z"/><text class="cls-3" transform="matrix(0.38, -0.93, 0.93, 0.38, 48.73, 106.78)">S</text><text class="cls-3" transform="translate(53.74 94.06) rotate(-57.31)">A</text><text class="cls-3" transform="translate(62.3 80.64) rotate(-45.9)">V</text><text class="cls-3" transform="matrix(0.81, -0.58, 0.58, 0.81, 73.66, 69.09)">E</text><text class="cls-3" transform="matrix(0.88, -0.47, 0.47, 0.88, 84.51, 61.59)"> </text><text class="cls-3" transform="translate(90.45 58.16) rotate(-21.06)">T</text><text class="cls-3" transform="translate(102.6 53.23) rotate(-10.06)">H</text><text class="cls-3" transform="translate(119.71 50.35) rotate(0.93)">E</text><text class="cls-3" transform="matrix(0.99, 0.14, -0.14, 0.99, 132.95, 50.73)"> </text><text class="cls-3" transform="translate(139.75 51.38) rotate(15.72)">P</text><text class="cls-3" transform="translate(154.09 55.54) rotate(25.29)">L</text><text class="cls-3" transform="matrix(0.82, 0.58, -0.58, 0.82, 164.69, 60.32)">A</text><text class="cls-3" transform="translate(177.72 69.38) rotate(46.99)">N</text><text class="cls-3" transform="matrix(0.53, 0.85, -0.85, 0.53, 189.44, 82.21)">E</text><text class="cls-3" transform="translate(196.38 93.18) rotate(67.18)">T</text><text class="cls-4" transform="translate(43.26 171.91) rotate(64.62)">E</text><text class="cls-4" transform="matrix(0.61, 0.79, -0.79, 0.61, 51.93, 188.52)">C</text><text class="cls-4" transform="translate(64.53 203.52) rotate(39.23)">O</text><text class="cls-4" transform="matrix(0.88, 0.48, -0.48, 0.88, 80.59, 215.4)"> </text><text class="cls-4" transform="translate(90.92 220.8) rotate(19.14)">F</text><text class="cls-4" transform="translate(108.95 226.31) rotate(6.27)">R</text><text class="cls-4" transform="translate(128.93 227.55) rotate(-4.19)">I</text><text class="cls-4" transform="translate(141.32 226.33) rotate(-14.2)">E</text><text class="cls-4" transform="translate(159.48 221.04) rotate(-27.45)">N</text><text class="cls-4" transform="translate(178.19 210.28) rotate(-41.11)">D</text><text class="cls-4" transform="translate(192.89 196.29) rotate(-53.49)">L</text><text class="cls-4" transform="translate(201.49 184.23) rotate(-63.67)">Y</text><path class="cls-2" d="M232.79,142.05a26.1,26.1,0,0,0-31.56,7.24,63.87,63.87,0,0,1,23.52-5.87,63.1,63.1,0,0,0-24.18,8.27,22.17,22.17,0,0,0,18.22,3.22A21.53,21.53,0,0,0,232.79,142.05Z"/><path class="cls-1" d="M223.34,121.68A29.63,29.63,0,0,0,199,149.17a72.44,72.44,0,0,1,17.87-20.92,71.54,71.54,0,0,0-16.9,23.56,25.15,25.15,0,0,0,19-9A24.45,24.45,0,0,0,223.34,121.68Z"/><path class="cls-2" d="M17.21,142.05a26.1,26.1,0,0,1,31.56,7.24,63.87,63.87,0,0,0-23.52-5.87,63.1,63.1,0,0,1,24.18,8.27,22.17,22.17,0,0,1-18.22,3.22A21.53,21.53,0,0,1,17.21,142.05Z"/><path class="cls-1" d="M26.66,121.68a29.63,29.63,0,0,1,24.39,27.49,72.44,72.44,0,0,0-17.87-20.92,71.54,71.54,0,0,1,16.9,23.56,25.15,25.15,0,0,1-19-9A24.45,24.45,0,0,1,26.66,121.68Z"/></g></svg>