<svg xmlns="http://www.w3.org/2000/svg" viewBox="0 0 250 250"><defs><style>.cls-1{fill:#cc8362;}.cls-2{fill:#8baf4b;}.cls-3{fill:#b36c4b;}.cls-4{font-size:22.06px;font-family:RobotoCondensed-Regular, Roboto Condensed;}.cls-4,.cls-5,.cls-6{fill:#5d7d00;}.cls-5{font-size:37.05px;font-family:PassionOne-Regular, Passion;}</style></defs><title>4836622</title><g id="OBJECTS"><path class="cls-1" d="M167.29,147.51c0,1.15,0,2.28-.15,3.4a16.45,16.45,0,0,1-.44,1.81c-3.8,2.72-10.38,4.61-18.33,5.77-20.71,3-50.69,1.19-64.94-3.9a35.32,35.32,0,0,1-.72-7.12,15.12,15.12,0,0,1,4.3-7.76,13.47,13.47,0,0,1,14.68-2.21c1.69-5.3,3.55-10.88,7.7-14.58,3.49-3.12,8.24-4.54,12.91-4.81a29.9,29.9,0,0,1,18,4.69c.35.22.69.45,1,.69A26.94,26.94,0,0,1,152.08,140a10.82,10.82,0,0,1,12,1.26,9,9,0,0,1,3.22,6.22A.06.06,0,0,0,167.29,147.51Z"/><path class="cls-1" d="M167.29,147.47v0c0,1.15,0,2.28-.15,3.4-1.69,19.66-17.85,35.56-42,36.56a39.15,39.15,0,0,1-14.81-2.24,41.92,41.92,0,0,1-26.87-30.64,35.32,35.32,0,0,1-.72-7.12Z"/><path class="cls-2" d="M124.41,94.29c-.85-4.43-3.74-8.21-7-11.31s-7-5.71-10.19-8.91-5.89-7.16-6.36-11.65c-4.36,4.43-8.39,9.47-10.11,15.44a26.5,26.5,0,0,0,1,18.22,27.41,27.41,0,0,0,11,11.83,44.78,44.78,0,0,0,14.33,5.24c-.55-2.59-1.07-5.15-1.73-7.63a43.1,43.1,0,0,0-4.93-12.09c-1.14-1.8-2.54-3.53-4-5.35a45.44,45.44,0,0,1-4.1-5.88,22.52,22.52,0,0,1-2.53-6.88,13,13,0,0,1-.15-3.68,8,8,0,0,1,1.13-3.41,11.56,11.56,0,0,0,1,6.53,26.45,26.45,0,0,0,3.34,5.64c1.32,1.74,2.86,3.35,4.41,5.07a42.77,42.77,0,0,1,4.5,5.65,32.7,32.7,0,0,1,4.66,13.77,51.71,51.71,0,0,1,.28,7.65,45.89,45.89,0,0,0,4.29-8.18A18.79,18.79,0,0,0,124.41,94.29Z"/><path class="cls-2" d="M150.24,91.77c-.77-4.14-3.16-7.81-5.81-11.08-.62,3-2.7,5.5-5.06,7.45s-5.06,3.46-7.47,5.34-4.62,4.24-5.48,7.18a12.67,12.67,0,0,0,.12,6.88,27.77,27.77,0,0,0,1.74,4.54,15.22,15.22,0,0,1-.49-5.43,16.16,16.16,0,0,1,3.29-8.29,16.67,16.67,0,0,1,3.22-3.17,38.22,38.22,0,0,1,3.61-2.27,23.52,23.52,0,0,0,3.33-2.22,11.71,11.71,0,0,0,1.44-1.38,9.51,9.51,0,0,0,1.16-1.71,7.6,7.6,0,0,1-1.52,4.08,16.62,16.62,0,0,1-3.07,3.14c-1.1.9-2.22,1.71-3.2,2.56a17.4,17.4,0,0,0-1.38,1.33,14.36,14.36,0,0,0-1.24,1.45,19,19,0,0,0-3.35,6.87,22.35,22.35,0,0,0-.6,6.89,30.84,30.84,0,0,0,10.68-2.65,18.6,18.6,0,0,0,8.2-7.27A18,18,0,0,0,150.24,91.77Z"/><path class="cls-3" d="M167.29,147.47v0c0,1.15,0,2.28-.15,3.4-1.69,19.66-17.85,35.56-42,36.56a39.15,39.15,0,0,1-14.81-2.24,37.13,37.13,0,0,0,8.56.15A38.52,38.52,0,0,0,144.1,172.2a19.78,19.78,0,0,0,4.32-7.55,10.94,10.94,0,0,0,0-6.16,8.19,8.19,0,0,0-1.09-2.27,7,7,0,0,0-7.66-2.85,29.33,29.33,0,0,0,2.82-5.9,29.93,29.93,0,0,0-2.12-24.67c.35.22.69.45,1,.69A26.94,26.94,0,0,1,152.08,140a10.82,10.82,0,0,1,12,1.26,9,9,0,0,1,3.22,6.22Z"/><text class="cls-4" transform="translate(48.43 168.73) rotate(64.8)">E</text><text class="cls-4" transform="translate(56.5 184.29) rotate(52.31)">C</text><text class="cls-4" transform="translate(68.22 198.31) rotate(39.34)">O</text><text class="cls-4" transform="translate(83.21 209.43) rotate(28.99)"> </text><text class="cls-4" transform="translate(92.86 214.48) rotate(19.18)">F</text><text class="cls-4" transform="translate(109.69 219.63) rotate(6.3)">R</text><text class="cls-4" transform="translate(128.33 220.8) rotate(-4.19)">I</text><text class="cls-4" transform="translate(139.93 219.65) rotate(-14.25)">E</text><text class="cls-4" transform="translate(156.87 214.69) rotate(-27.51)">N</text><text class="cls-4" transform="translate(174.34 204.61) rotate(-41.22)">D</text><text class="cls-4" transform="matrix(0.59, -0.81, 0.81, 0.59, 188.04, 191.51)">L</text><text class="cls-4" transform="translate(196.03 180.24) rotate(-63.84)">Y</text><text class="cls-5" transform="translate(69.02 80.76) rotate(-54.65)">O</text><text class="cls-5" transform="matrix(0.82, -0.57, 0.57, 0.82, 82.45, 62.82)">R</text><text class="cls-5" transform="matrix(0.97, -0.26, 0.26, 0.97, 99.78, 51.23)">G</text><text class="cls-5" transform="matrix(1, 0.08, -0.08, 1, 120.91, 46.12)">A</text><text class="cls-5" transform="translate(141.76 48.13) rotate(24.87)">N</text><text class="cls-5" transform="translate(161.9 58.68) rotate(41.5)">I</text><text class="cls-5" transform="translate(171.83 67.57) rotate(56.04)">C</text><path class="cls-2" d="M194,134c-6.3,0-11.83-5.85-11.83-12.52a12.13,12.13,0,0,1,3.7-8.73A10.94,10.94,0,0,1,194,109.7a13.26,13.26,0,0,1,9.33,4.57,9.65,9.65,0,0,1,2.44,7.38C205.07,127.8,200.78,134,194,134Zm-.45-22.13a8.87,8.87,0,0,0-6.15,2.49,9.88,9.88,0,0,0-3,7.12c0,5.48,4.48,10.29,9.6,10.29,5.44,0,9-5.37,9.6-10.42h0a7.46,7.46,0,0,0-1.92-5.68,11,11,0,0,0-7.73-3.79Z"/><path class="cls-6" d="M193.61,129.41h-.25a2.61,2.61,0,0,1-1.89-1.12L186,120.21a2.59,2.59,0,1,1,4.29-2.92l3.74,5.5,12-11.8a2.59,2.59,0,1,1,3.63,3.7l-14.25,14A2.59,2.59,0,0,1,193.61,129.41Z"/><path class="cls-2" d="M51.36,134c-6.3,0-11.82-5.85-11.82-12.52a12.16,12.16,0,0,1,3.69-8.73,11,11,0,0,1,8.18-3.09,13.26,13.26,0,0,1,9.33,4.57,9.69,9.69,0,0,1,2.44,7.38C62.45,127.8,58.16,134,51.36,134Zm-.45-22.13a8.84,8.84,0,0,0-6.14,2.49,9.89,9.89,0,0,0-3,7.12c0,5.48,4.49,10.29,9.6,10.29,5.44,0,9-5.37,9.61-10.42h0a7.5,7.5,0,0,0-1.92-5.68,11,11,0,0,0-7.74-3.79Z"/><path class="cls-6" d="M51,129.41h-.26a2.65,2.65,0,0,1-1.89-1.12l-5.48-8.07a2.59,2.59,0,1,1,4.29-2.92l3.74,5.5,12-11.8a2.59,2.59,0,1,1,3.63,3.7l-14.26,14A2.57,2.57,0,0,1,51,129.41Z"/></g></svg>